<svg width="8" height="12" viewBox="0 0 8 12" fill="none" xmlns="http://www.w3.org/2000/svg">
<path opacity="0.3" fill-rule="evenodd" clip-rule="evenodd" d="M4.00003 0.406523C2.28181 0.406523 0.888916 1.79942 0.888916 3.51764V3.6762C0.888916 4.79993 0 5.86853 0 6.99226C0 7.81152 0.585324 8.51442 1.39682 8.62694C2.20268 8.73869 3.20964 8.85108 4 8.85108C4.79036 8.85108 5.79732 8.73869 6.60318 8.62694C7.41467 8.51442 8 7.81152 8 6.99226C8 5.86856 7.11114 4.79999 7.11114 3.67629V3.51763C7.11114 1.79941 5.71825 0.406523 4.00003 0.406523Z" fill="#2B3F6C"/>
<path d="M5.11108 10.1844C4.87221 10.5437 4.46374 10.7804 3.99997 10.7804C3.5362 10.7804 3.12774 10.5437 2.88887 10.1844" stroke="#2B3F6C" stroke-width="1.5" stroke-linecap="round"/>
</svg>
