<svg width="24" height="24" viewBox="0 0 24 24" fill="none" xmlns="http://www.w3.org/2000/svg">
<path opacity="0.3" fill-rule="evenodd" clip-rule="evenodd" d="M21.2647 19.9446C21.2647 20.359 20.929 20.6949 20.515 20.6949H14.3933C13.9792 20.6949 13.6436 20.359 13.6436 19.9446C13.6436 19.5302 13.9792 19.1943 14.3933 19.1943H20.515C20.929 19.1943 21.2647 19.5302 21.2647 19.9446Z" fill="#2B3F6C"/>
<path d="M16.8714 4.33596C16.0903 3.55491 14.8245 3.55539 14.044 4.33703L12.3809 6.00272L17.7213 11.3432L19.3813 9.64011C20.1457 8.85585 20.1376 7.6022 19.3632 6.82781L16.8714 4.33596Z" fill="#2B3F6C"/>
<path opacity="0.3" d="M16.6741 12.4173L11.3208 7.06396L4.74391 13.6508C4.21284 14.1827 3.90062 14.8947 3.86902 15.6459L3.75087 18.455C3.715 19.3077 4.39607 20.0186 5.24891 20.0186L8.00105 20.0188C8.8094 20.0188 9.58353 19.6923 10.1479 19.1132L16.6741 12.4173Z" fill="#2B3F6C"/>
</svg>
