<svg width="16" height="16" viewBox="0 0 16 16" fill="none" xmlns="http://www.w3.org/2000/svg">
<path opacity="0.3" d="M10.7907 12.7495V9.633L5.20929 12.8888V14.2378C5.20929 15.206 6.22811 15.8356 7.09403 15.4027L10.0708 13.9143C10.512 13.6937 10.7907 13.2427 10.7907 12.7495Z" fill="#2B3F6C"/>
<path fill-rule="evenodd" clip-rule="evenodd" d="M0 2.04651C0 0.916254 0.916255 0 2.04651 0H13.9535C15.0837 0 16 0.916254 16 2.04651V2.65489C16 3.36175 15.7318 4.04228 15.2495 4.55904L11.0409 9.06823C10.8801 9.24048 10.7907 9.46732 10.7907 9.70294V9.63299L5.2093 12.8888V9.70294C5.2093 9.46732 5.11989 9.24048 4.95912 9.06823L0.750543 4.55903C0.268237 4.04228 0 3.36175 0 2.65489V2.04651Z" fill="#2B3F6C"/>
</svg>
