<svg width="18" height="21" viewBox="0 0 18 21" fill="none" xmlns="http://www.w3.org/2000/svg">
<path opacity="0.3" fill-rule="evenodd" clip-rule="evenodd" d="M3.41791 3.25C1.3917 3.25 0.235099 5.56321 1.45083 7.18418C1.9697 7.87601 2.25019 8.71748 2.25019 9.58228V16C2.25019 18.6234 4.37684 20.75 7.00019 20.75H11.0002C13.6235 20.75 15.7502 18.6234 15.7502 16V9.58228C15.7502 8.71748 16.0307 7.87601 16.5496 7.18418C17.7653 5.56321 16.6087 3.25 14.5825 3.25H3.41791Z" fill="#2B3F6C"/>
<path d="M11 15L11 9" stroke="#2B3F6C" stroke-width="1.5" stroke-linecap="round" stroke-linejoin="round"/>
<path d="M7 15L7 9" stroke="#2B3F6C" stroke-width="1.5" stroke-linecap="round" stroke-linejoin="round"/>
<path d="M13 4L12.4558 2.36754C12.1836 1.55086 11.4193 1 10.5585 1H7.44152C6.58066 1 5.81638 1.55086 5.54415 2.36754L5 4" stroke="#2B3F6C" stroke-width="1.5" stroke-linecap="round"/>
</svg>
